<svg xmlns="http://www.w3.org/2000/svg" version="1.1"  width="498" height="532"><svg width="498" height="532" viewBox="0 0 498 532" fill="none" xmlns="http://www.w3.org/2000/svg">
<rect width="497.999" height="531.199" fill="white"></rect>
<rect x="199.199" y="99.5977" width="33.2" height="33.2" fill="black"></rect>
<rect x="199.199" y="132.803" width="33.2" height="33.2" fill="black"></rect>
<rect x="199.199" y="166.002" width="33.2" height="33.2" fill="black"></rect>
<rect x="199.199" y="199.201" width="33.2" height="33.2" fill="black"></rect>
<rect x="199.199" y="232.4" width="33.2" height="33.2" fill="black"></rect>
<rect x="199.199" y="265.6" width="33.2" height="33.2" fill="black"></rect>
<rect x="199.199" y="365.197" width="33.2" height="33.2" fill="black"></rect>
<rect x="199.199" y="398.4" width="33.2" height="33.2" fill="black"></rect>
<rect x="199.199" y="298.799" width="33.2" height="33.2" fill="black"></rect>
<rect x="199.199" y="331.998" width="33.2" height="33.2" fill="black"></rect>
<rect x="265.599" y="99.5977" width="33.2" height="33.2" fill="black"></rect>
<rect x="265.599" y="132.803" width="33.2" height="33.2" fill="black"></rect>
<rect x="265.599" y="166.002" width="33.2" height="33.2" fill="black"></rect>
<rect x="265.599" y="199.201" width="33.2" height="33.2" fill="black"></rect>
<rect x="265.599" y="232.4" width="33.2" height="33.2" fill="black"></rect>
<rect x="265.599" y="265.6" width="33.2" height="33.2" fill="black"></rect>
<rect x="265.599" y="365.197" width="33.2" height="33.2" fill="black"></rect>
<rect x="265.599" y="398.4" width="33.2" height="33.2" fill="black"></rect>
<rect x="265.599" y="298.799" width="33.2" height="33.2" fill="black"></rect>
<rect x="265.599" y="331.998" width="33.2" height="33.2" fill="black"></rect>
</svg><style>@media (prefers-color-scheme: light) { :root { filter: none; } }
@media (prefers-color-scheme: dark) { :root { filter: none; } }
</style></svg>